<?xml version="1.0" encoding="utf-8"?>
<!-- Generator: Adobe Illustrator 26.3.1, SVG Export Plug-In . SVG Version: 6.00 Build 0)  -->
<svg version="1.1" id="Ebene_1" xmlns="http://www.w3.org/2000/svg" xmlns:xlink="http://www.w3.org/1999/xlink" x="0px" y="0px"
	 viewBox="0 0 595.28 322.52" style="enable-background:new 0 0 595.28 322.52;" xml:space="preserve">
<style type="text/css">
	.st0{opacity:0.3;fill:url(#SVGID_1_);}
	.st1{fill:#9AAEB7;}
	.st2{fill:#00324B;}
</style>
<linearGradient id="SVGID_1_" gradientUnits="userSpaceOnUse" x1="133.3173" y1="164.0016" x2="146.9434" y2="164.0016">
	<stop  offset="0" style="stop-color:#3C3C3B"/>
	<stop  offset="0.0195" style="stop-color:#444443"/>
	<stop  offset="0.1526" style="stop-color:#757574"/>
	<stop  offset="0.2889" style="stop-color:#9F9F9F"/>
	<stop  offset="0.4261" style="stop-color:#C2C2C2"/>
	<stop  offset="0.5647" style="stop-color:#DDDDDD"/>
	<stop  offset="0.7052" style="stop-color:#F0F0F0"/>
	<stop  offset="0.8488" style="stop-color:#FBFBFB"/>
	<stop  offset="1" style="stop-color:#FFFFFF"/>
</linearGradient>
<rect x="133.32" y="111.09" class="st0" width="13.63" height="105.83"/>
<g>
	<g>
		<rect x="112.19" y="153.44" class="st1" width="21.12" height="63.48"/>
		<g>
			<path class="st1" d="M175.55,185.17c0-5.86-4.75-10.61-10.61-10.61h-10.49v0.01v21.21h10.49
				C170.8,195.78,175.55,191.03,175.55,185.17z"/>
			<path class="st1" d="M211.56,174.56h-16.71c-1.4-3.94-3.54-7.52-6.28-10.57c2.73-3.04,4.87-6.62,6.27-10.55h16.72V174.56z"/>
			<path class="st1" d="M164.93,216.9v0.01h10.63v0h42.45v-21.12h-23.18C190.47,208.09,178.74,216.9,164.93,216.9z"/>
			<path class="st1" d="M218.02,111.09h-42.45H165.4c13.61,0.2,25.14,8.95,29.45,21.12h23.17V111.09z"/>
			<path class="st1" d="M175.55,142.81c0-5.86-4.75-10.61-10.61-10.61h-10.49v0.01v21.21h10.49
				C170.8,153.43,175.55,148.68,175.55,142.81z"/>
		</g>
		<circle class="st2" cx="122.76" cy="121.91" r="13.47"/>
	</g>
	<g>
		<path class="st2" d="M266.36,153.5h-5.01v-28.93h5.01V153.5z"/>
		<path class="st2" d="M276.44,132l0.14,2.48c1.59-1.92,3.68-2.88,6.26-2.88c4.48,0,6.75,2.56,6.83,7.69v14.2h-4.83v-13.93
			c0-1.36-0.29-2.37-0.88-3.03c-0.59-0.66-1.55-0.98-2.89-0.98c-1.95,0-3.4,0.88-4.35,2.64v15.3h-4.83V132H276.44z"/>
		<path class="st2" d="M299.03,132l0.14,2.48c1.59-1.92,3.68-2.88,6.26-2.88c4.48,0,6.75,2.56,6.83,7.69v14.2h-4.83v-13.93
			c0-1.36-0.29-2.37-0.88-3.03c-0.59-0.66-1.55-0.98-2.89-0.98c-1.95,0-3.4,0.88-4.35,2.64v15.3h-4.83V132H299.03z"/>
		<path class="st2" d="M316.11,142.55c0-2.11,0.42-4,1.25-5.69s2.01-2.99,3.52-3.89c1.51-0.91,3.24-1.36,5.21-1.36
			c2.9,0,5.25,0.93,7.06,2.8c1.81,1.87,2.78,4.34,2.93,7.43l0.02,1.13c0,2.12-0.41,4.01-1.22,5.68c-0.81,1.67-1.98,2.96-3.5,3.87
			c-1.52,0.91-3.27,1.37-5.25,1.37c-3.03,0-5.46-1.01-7.28-3.03c-1.82-2.02-2.73-4.71-2.73-8.08V142.55z M320.94,142.97
			c0,2.21,0.46,3.94,1.37,5.2c0.91,1.25,2.19,1.88,3.81,1.88c1.63,0,2.9-0.64,3.8-1.91c0.91-1.27,1.36-3.13,1.36-5.58
			c0-2.17-0.47-3.89-1.4-5.17c-0.93-1.27-2.2-1.91-3.8-1.91c-1.58,0-2.83,0.63-3.75,1.88C321.4,138.61,320.94,140.48,320.94,142.97z
			"/>
		<path class="st2" d="M346.9,147.38l4.55-15.38h4.99l-7.45,21.5h-4.19l-7.51-21.5h5.01L346.9,147.38z"/>
		<path class="st2" d="M371.54,153.5c-0.21-0.41-0.4-1.08-0.56-2.01c-1.54,1.6-3.42,2.4-5.64,2.4c-2.16,0-3.92-0.62-5.28-1.85
			c-1.36-1.23-2.05-2.75-2.05-4.57c0-2.29,0.85-4.05,2.55-5.27c1.7-1.23,4.14-1.84,7.3-1.84h2.96v-1.41c0-1.11-0.31-2-0.93-2.67
			c-0.62-0.67-1.57-1-2.84-1c-1.1,0-2,0.27-2.7,0.82c-0.7,0.55-1.05,1.25-1.05,2.1h-4.83c0-1.18,0.39-2.28,1.17-3.31
			c0.78-1.03,1.84-1.83,3.19-2.41s2.84-0.87,4.5-0.87c2.52,0,4.52,0.63,6.02,1.9c1.5,1.26,2.26,3.04,2.3,5.33v9.7
			c0,1.93,0.27,3.48,0.81,4.63v0.34H371.54z M366.24,150.02c0.95,0,1.85-0.23,2.69-0.7c0.84-0.46,1.47-1.09,1.9-1.87v-4.05h-2.6
			c-1.79,0-3.13,0.31-4.03,0.93c-0.9,0.62-1.35,1.5-1.35,2.64c0,0.93,0.31,1.67,0.92,2.22S365.2,150.02,366.24,150.02z"/>
		<path class="st2" d="M386.57,126.78V132h3.79v3.58h-3.79v12c0,0.82,0.16,1.41,0.49,1.78s0.9,0.55,1.74,0.55
			c0.56,0,1.12-0.07,1.69-0.2v3.74c-1.1,0.3-2.16,0.46-3.18,0.46c-3.71,0-5.56-2.05-5.56-6.14v-12.18h-3.54V132h3.54v-5.23H386.57z"
			/>
		<path class="st2" d="M393.6,126.42c0-0.74,0.24-1.36,0.71-1.85c0.47-0.49,1.14-0.74,2.02-0.74c0.87,0,1.55,0.25,2.03,0.74
			c0.48,0.49,0.72,1.11,0.72,1.85c0,0.73-0.24,1.33-0.72,1.82c-0.48,0.48-1.15,0.73-2.03,0.73c-0.87,0-1.55-0.24-2.02-0.73
			C393.83,127.75,393.6,127.15,393.6,126.42z M398.72,153.5h-4.83V132h4.83V153.5z"/>
		<path class="st2" d="M411.4,147.38l4.55-15.38h4.99l-7.45,21.5h-4.19l-7.51-21.5h5.01L411.4,147.38z"/>
		<path class="st2" d="M432.44,153.9c-3.06,0-5.54-0.96-7.44-2.89c-1.9-1.93-2.85-4.49-2.85-7.7v-0.6c0-2.15,0.41-4.06,1.24-5.75
			c0.83-1.69,1.99-3,3.49-3.94c1.5-0.94,3.17-1.41,5.01-1.41c2.93,0,5.19,0.93,6.78,2.8c1.6,1.87,2.39,4.51,2.39,7.93v1.95h-14.05
			c0.15,1.77,0.74,3.18,1.78,4.21c1.04,1.03,2.35,1.55,3.92,1.55c2.21,0,4.01-0.89,5.4-2.68l2.6,2.48
			c-0.86,1.28-2.01,2.28-3.45,2.99C435.84,153.54,434.22,153.9,432.44,153.9z M431.86,135.48c-1.32,0-2.39,0.46-3.21,1.39
			s-1.33,2.22-1.56,3.87h9.2v-0.36c-0.11-1.62-0.54-2.84-1.29-3.67C434.24,135.89,433.2,135.48,431.86,135.48z"/>
		<path class="st2" d="M261.05,195.88v-28.93h9.91c3.27,0,5.76,0.66,7.47,1.97c1.71,1.31,2.56,3.26,2.56,5.86
			c0,1.32-0.36,2.52-1.07,3.58c-0.72,1.06-1.76,1.88-3.14,2.46c1.56,0.42,2.77,1.22,3.63,2.39c0.85,1.17,1.28,2.58,1.28,4.22
			c0,2.72-0.87,4.8-2.61,6.26c-1.74,1.46-4.24,2.19-7.48,2.19H261.05z M266.08,179.13h4.93c1.56,0,2.78-0.35,3.67-1.06
			c0.88-0.71,1.32-1.71,1.32-3.01c0-1.43-0.41-2.46-1.22-3.1c-0.81-0.64-2.08-0.95-3.8-0.95h-4.89V179.13z M266.08,182.83v9.04h5.58
			c1.58,0,2.81-0.39,3.7-1.17c0.89-0.78,1.33-1.87,1.33-3.26c0-3.01-1.54-4.54-4.61-4.61H266.08z"/>
		<path class="st2" d="M298.83,195.88c-0.21-0.41-0.4-1.08-0.56-2.01c-1.54,1.6-3.42,2.4-5.64,2.4c-2.16,0-3.92-0.62-5.28-1.85
			c-1.36-1.23-2.05-2.75-2.05-4.57c0-2.29,0.85-4.05,2.55-5.27c1.7-1.23,4.14-1.84,7.3-1.84h2.96v-1.41c0-1.11-0.31-2-0.93-2.67
			c-0.62-0.67-1.57-1-2.84-1c-1.1,0-2,0.27-2.7,0.82s-1.05,1.25-1.05,2.1h-4.83c0-1.18,0.39-2.28,1.17-3.31
			c0.78-1.03,1.84-1.83,3.19-2.41c1.34-0.58,2.84-0.87,4.5-0.87c2.52,0,4.52,0.63,6.02,1.9c1.5,1.26,2.26,3.04,2.3,5.33v9.7
			c0,1.93,0.27,3.48,0.81,4.63v0.34H298.83z M293.52,192.4c0.95,0,1.85-0.23,2.69-0.7s1.47-1.09,1.9-1.87v-4.05h-2.6
			c-1.79,0-3.13,0.31-4.03,0.93s-1.35,1.5-1.35,2.64c0,0.93,0.31,1.67,0.92,2.22C291.67,192.13,292.49,192.4,293.52,192.4z"/>
		<path class="st2" d="M320.77,193.78c-1.42,1.67-3.43,2.5-6.04,2.5c-2.33,0-4.1-0.68-5.29-2.05c-1.2-1.36-1.8-3.34-1.8-5.92v-13.93
			h4.83v13.87c0,2.73,1.13,4.09,3.4,4.09c2.34,0,3.93-0.84,4.75-2.52v-15.44h4.83v21.5h-4.55L320.77,193.78z"/>
		<path class="st2" d="M339.67,196.28c-3.06,0-5.54-0.96-7.44-2.89c-1.9-1.93-2.85-4.49-2.85-7.7v-0.6c0-2.15,0.41-4.06,1.24-5.75
			c0.83-1.69,1.99-3,3.49-3.94c1.5-0.94,3.17-1.41,5.01-1.41c2.93,0,5.19,0.93,6.78,2.8c1.6,1.87,2.39,4.51,2.39,7.93v1.95h-14.05
			c0.15,1.77,0.74,3.18,1.78,4.21c1.04,1.03,2.35,1.55,3.92,1.55c2.21,0,4.01-0.89,5.4-2.68l2.6,2.48
			c-0.86,1.28-2.01,2.28-3.45,2.99S341.46,196.28,339.67,196.28z M339.1,177.86c-1.32,0-2.39,0.46-3.21,1.39
			c-0.81,0.93-1.33,2.22-1.56,3.87h9.2v-0.36c-0.11-1.62-0.54-2.84-1.29-3.67C341.48,178.28,340.43,177.86,339.1,177.86z"/>
		<path class="st2" d="M357.15,195.88h-4.83v-30.52h4.83V195.88z"/>
		<path class="st2" d="M371.61,196.28c-3.06,0-5.54-0.96-7.44-2.89c-1.9-1.93-2.85-4.49-2.85-7.7v-0.6c0-2.15,0.41-4.06,1.24-5.75
			c0.83-1.69,1.99-3,3.49-3.94c1.5-0.94,3.17-1.41,5.01-1.41c2.93,0,5.19,0.93,6.78,2.8c1.6,1.87,2.39,4.51,2.39,7.93v1.95h-14.05
			c0.15,1.77,0.74,3.18,1.78,4.21c1.04,1.03,2.35,1.55,3.92,1.55c2.21,0,4.01-0.89,5.4-2.68l2.6,2.48
			c-0.86,1.28-2.01,2.28-3.45,2.99C375.01,195.92,373.4,196.28,371.61,196.28z M371.03,177.86c-1.32,0-2.39,0.46-3.21,1.39
			c-0.81,0.93-1.33,2.22-1.56,3.87h9.2v-0.36c-0.11-1.62-0.54-2.84-1.29-3.67C373.42,178.28,372.37,177.86,371.03,177.86z"/>
		<path class="st2" d="M388.62,174.39l0.14,2.24c1.51-1.76,3.58-2.64,6.2-2.64c2.87,0,4.84,1.1,5.9,3.3c1.56-2.2,3.76-3.3,6.6-3.3
			c2.37,0,4.14,0.66,5.29,1.97c1.16,1.31,1.75,3.24,1.78,5.8v14.13h-4.83V181.9c0-1.36-0.3-2.36-0.89-3s-1.58-0.95-2.96-0.95
			c-1.1,0-2,0.29-2.69,0.88s-1.18,1.36-1.46,2.31l0.02,14.74h-4.83v-14.15c-0.07-2.53-1.36-3.79-3.87-3.79
			c-1.93,0-3.3,0.79-4.11,2.36v15.58h-4.83v-21.5H388.62z"/>
		<path class="st2" d="M428.72,196.28c-3.06,0-5.54-0.96-7.44-2.89c-1.9-1.93-2.85-4.49-2.85-7.7v-0.6c0-2.15,0.41-4.06,1.24-5.75
			c0.83-1.69,1.99-3,3.49-3.94c1.5-0.94,3.17-1.41,5.01-1.41c2.93,0,5.19,0.93,6.78,2.8c1.6,1.87,2.39,4.51,2.39,7.93v1.95H423.3
			c0.15,1.77,0.74,3.18,1.78,4.21c1.04,1.03,2.35,1.55,3.92,1.55c2.21,0,4.01-0.89,5.4-2.68l2.6,2.48
			c-0.86,1.28-2.01,2.28-3.45,2.99S430.51,196.28,428.72,196.28z M428.14,177.86c-1.32,0-2.39,0.46-3.21,1.39
			c-0.81,0.93-1.33,2.22-1.56,3.87h9.2v-0.36c-0.11-1.62-0.54-2.84-1.29-3.67C430.53,178.28,429.48,177.86,428.14,177.86z"/>
		<path class="st2" d="M445.69,174.39l0.14,2.48c1.59-1.92,3.68-2.88,6.26-2.88c4.48,0,6.75,2.56,6.83,7.69v14.2h-4.83v-13.93
			c0-1.36-0.29-2.37-0.88-3.03s-1.55-0.98-2.89-0.98c-1.95,0-3.4,0.88-4.35,2.64v15.3h-4.83v-21.5H445.69z"/>
		<path class="st2" d="M469.81,169.16v5.23h3.79v3.58h-3.79v12c0,0.82,0.16,1.41,0.49,1.78s0.9,0.55,1.74,0.55
			c0.56,0,1.12-0.07,1.69-0.2v3.74c-1.1,0.3-2.16,0.46-3.18,0.46c-3.71,0-5.56-2.05-5.56-6.14v-12.18h-3.54v-3.58h3.54v-5.23H469.81
			z"/>
		<path class="st2" d="M486.14,196.28c-3.06,0-5.54-0.96-7.44-2.89c-1.9-1.93-2.85-4.49-2.85-7.7v-0.6c0-2.15,0.41-4.06,1.24-5.75
			c0.83-1.69,1.99-3,3.49-3.94c1.5-0.94,3.17-1.41,5.01-1.41c2.93,0,5.19,0.93,6.78,2.8s2.39,4.51,2.39,7.93v1.95h-14.05
			c0.15,1.77,0.74,3.18,1.78,4.21c1.04,1.03,2.35,1.55,3.92,1.55c2.21,0,4.01-0.89,5.4-2.68l2.6,2.48
			c-0.86,1.28-2.01,2.28-3.45,2.99C489.54,195.92,487.93,196.28,486.14,196.28z M485.57,177.86c-1.32,0-2.39,0.46-3.21,1.39
			c-0.81,0.93-1.33,2.22-1.56,3.87h9.2v-0.36c-0.11-1.62-0.54-2.84-1.29-3.67C487.95,178.28,486.9,177.86,485.57,177.86z"/>
	</g>
</g>
</svg>
